            <svg
              id="Calque_1"
              width="120"
              height="40"
              role="img"
              data-name="Calque 1"
              xmlns="http://www.w3.org/2000/svg"
              viewBox="0 0 467.8 231"
            >
              <defs>
                <style>
                  .cls-1 {
                    fill: #010101;
                  }

                  .cls-2 {
                    fill: #1fa0db;
                  }

                  .cls-3 {
                    fill: #00a1e3;
                  }
                </style>
              </defs>
              <path
                class="cls-1"
                d="M28.3,158.8A28.3,28.3,0,0,1,0,187.2H0V212a53.1,53.1,0,0,0,53-53.2h0V66.6A140.6,140.6,0,0,0,28.4,80.3ZM414,53a53,53,0,0,0,0,106h11.1V134.4H414A28.4,28.4,0,1,1,442.3,106v53H467V106A53,53,0,0,0,414,53ZM246.4,53a52.8,52.8,0,0,0-28.3,8.3V0H193.4V159h24.7V106a28.4,28.4,0,1,1,56.7,0h0v53h24.6V106a53,53,0,0,0-53-53Zm71.5,106h24.6V80.4a144.8,144.8,0,0,0-24.6-13.8ZM122,53a53,53,0,0,0,0,106h11.1V134.4H122A28.4,28.4,0,1,1,150.3,106v53H175V106A53,53,0,0,0,122,53Z"
              />
              <path
                class="cls-2"
                d="M317.9,34.4V50.2a162.4,162.4,0,0,1,24.6,12.5V34.4Z"
              />
              <path
                class="cls-2"
                d="M53,34.4V50.2A163.5,163.5,0,0,0,28.3,62.7V34.4Z"
              />
              <path
                class="cls-3"
                d="M253,222.1h-6.6a3.5,3.5,0,0,1-1.8-.5,3.1,3.1,0,0,1-1-1.3l-2.1-6.4H227.6l-2.1,6.4a3.2,3.2,0,0,1-2.8,1.8h-6.6l14.1-36.4h8.7Zm-23.4-13.9h9.9l-3.3-10-.8-2.2a22.9,22.9,0,0,1-.8-2.8l-.9,2.8a12.3,12.3,0,0,1-.8,2.3Z"
              />
              <path
                class="cls-3"
                d="M278.9,212.7h.6l.6.4,3.3,3.5a12.9,12.9,0,0,1-5.5,4.3,18.7,18.7,0,0,1-7.8,1.5,19.7,19.7,0,0,1-7.5-1.4,18.3,18.3,0,0,1-5.5-3.9,16,16,0,0,1-3.5-5.9,19.4,19.4,0,0,1,4-20.8,18,18,0,0,1,6.1-3.8,19.2,19.2,0,0,1,7.7-1.4,22.5,22.5,0,0,1,3.8.3,23.1,23.1,0,0,1,3.4,1,15.7,15.7,0,0,1,2.9,1.6,15.5,15.5,0,0,1,2.4,1.9L281,194l-.6.6a1.8,1.8,0,0,1-1.1.3l-.8-.2-.9-.5-1-.6a3.5,3.5,0,0,0-1.2-.7l-1.8-.4a7.9,7.9,0,0,0-2.3-.2,9.8,9.8,0,0,0-4.2.8,9,9,0,0,0-3.2,2.3,12.1,12.1,0,0,0-2.2,3.7,14.3,14.3,0,0,0-.7,4.8,15.9,15.9,0,0,0,.7,5,12.6,12.6,0,0,0,2.1,3.6,8.7,8.7,0,0,0,3.1,2.3,9.5,9.5,0,0,0,3.7.8l2.1-.2a8.4,8.4,0,0,0,1.8-.3l1.5-.8,1.5-1,.7-.5Z"
              />
              <path
                class="cls-3"
                d="M321.2,222.1h-6.6a3.5,3.5,0,0,1-1.8-.5,3.1,3.1,0,0,1-1-1.3l-2.1-6.4H295.8l-2.1,6.4a3.2,3.2,0,0,1-2.8,1.8h-6.6l14.1-36.4h8.7Zm-23.4-13.9h9.9l-3.3-10-.8-2.2a22.9,22.9,0,0,1-.8-2.8l-.9,2.8a12.3,12.3,0,0,1-.8,2.3Z"
              />
              <path
                class="cls-3"
                d="M357.2,203.9a19.8,19.8,0,0,1-1.4,7.3,17.3,17.3,0,0,1-3.8,5.7,17.1,17.1,0,0,1-6,3.8,21.1,21.1,0,0,1-7.7,1.4H324.1V185.7h14.2a19.2,19.2,0,0,1,7.7,1.4,17.1,17.1,0,0,1,6,3.8,17.3,17.3,0,0,1,3.8,5.7A19.4,19.4,0,0,1,357.2,203.9Zm-8.7,0a15.3,15.3,0,0,0-.7-4.9,9.5,9.5,0,0,0-2-3.7,8.2,8.2,0,0,0-3.2-2.3,10,10,0,0,0-4.3-.8h-5.7v23.4h5.7a11.8,11.8,0,0,0,4.3-.8,9.4,9.4,0,0,0,3.2-2.3,9.5,9.5,0,0,0,2-3.7A15.3,15.3,0,0,0,348.5,203.9Z"
              />
              <path
                class="cls-3"
                d="M384.7,185.7v6.5h-15v8.5h11.5v6.2H369.7v8.7h15v6.5H361.2V185.7Z"
              />
              <path
                class="cls-3"
                d="M409.1,207.4l.9,2.1a9.5,9.5,0,0,1,.9-2.1l.9-2,9.4-18.4a2.8,2.8,0,0,1,.5-.8l.6-.4h8.1v36.4H423V201.2c0-1.1,0-2.2.1-3.3l-9.6,18.7a3,3,0,0,1-1.2,1.3,3.5,3.5,0,0,1-1.8.5h-1.1a3.7,3.7,0,0,1-1.8-.5,3,3,0,0,1-1.2-1.3l-9.7-18.8a11,11,0,0,1,.2,1.8v22.5h-7.4V185.7h8.1l.6.4a1.6,1.6,0,0,1,.5.8l9.4,18.4C408.4,206.1,408.8,206.7,409.1,207.4Z"
              />
              <path
                class="cls-3"
                d="M454.6,208.3v13.8h-8.5V208.3l-13.2-22.6h7.5a2.3,2.3,0,0,1,1.7.5,3.5,3.5,0,0,1,1.1,1.3l5.1,10.6,1.2,2.4.9,2.1.9-2.2c.4-.7.7-1.5,1.1-2.3l5.1-10.6.4-.6.6-.6.8-.5h8.5Z"
              />
            </svg>
